<mxfile host="app.diagrams.net" agent="Mozilla/5.0 (Windows NT 10.0; Win64; x64) AppleWebKit/537.36 (KHTML, like Gecko) Chrome/129.0.0.0 Safari/537.36" version="24.8.3">
  <diagram name="第 1 页" id="eBxpEUce6OSXojEvCKun">
    <mxGraphModel dx="670" dy="298" grid="0" gridSize="10" guides="1" tooltips="1" connect="1" arrows="1" fold="1" page="1" pageScale="1" pageWidth="827" pageHeight="1169" math="1" shadow="0">
      <root>
        <mxCell id="0" />
        <mxCell id="1" parent="0" />
        <mxCell id="3Vint5cdIcsb6F5nu3PV-12" value="" style="group" vertex="1" connectable="0" parent="1">
          <mxGeometry x="325" y="945" width="90" height="118" as="geometry" />
        </mxCell>
        <mxCell id="3Vint5cdIcsb6F5nu3PV-1" value="" style="html=1;whiteSpace=wrap;shape=isoCube2;backgroundOutline=1;isoAngle=15;fillColor=none;" vertex="1" parent="3Vint5cdIcsb6F5nu3PV-12">
          <mxGeometry width="90" height="100" as="geometry" />
        </mxCell>
        <mxCell id="3Vint5cdIcsb6F5nu3PV-8" value="" style="verticalLabelPosition=bottom;verticalAlign=top;html=1;shape=mxgraph.basic.polygon;polyCoords=[[0,0.25],[1,0.04],[1,0.04],[1,0.58],[1,0.58],[1,0.61],[0,0.82],[0,0.25]];polyline=1;strokeColor=#3333FF;fillColor=#dae8fc;" vertex="1" parent="3Vint5cdIcsb6F5nu3PV-12">
          <mxGeometry x="45" y="18" width="45" height="100" as="geometry" />
        </mxCell>
        <mxCell id="keFbgEaDjvXF14RTKgg7-1" value="" style="endArrow=classic;html=1;rounded=0;" parent="1" edge="1">
          <mxGeometry width="50" height="50" relative="1" as="geometry">
            <mxPoint x="160" y="320" as="sourcePoint" />
            <mxPoint x="360" y="320" as="targetPoint" />
          </mxGeometry>
        </mxCell>
        <mxCell id="keFbgEaDjvXF14RTKgg7-2" value="" style="endArrow=classic;html=1;rounded=0;" parent="1" edge="1">
          <mxGeometry width="50" height="50" relative="1" as="geometry">
            <mxPoint x="200" y="360" as="sourcePoint" />
            <mxPoint x="200" y="160" as="targetPoint" />
          </mxGeometry>
        </mxCell>
        <mxCell id="keFbgEaDjvXF14RTKgg7-3" value="&lt;font color=&quot;#67ab9f&quot;&gt;A&lt;/font&gt;" style="whiteSpace=wrap;html=1;aspect=fixed;fillColor=#d5e8d4;strokeColor=#82b366;opacity=50;" parent="1" vertex="1">
          <mxGeometry x="200" y="200" width="120" height="120" as="geometry" />
        </mxCell>
        <mxCell id="keFbgEaDjvXF14RTKgg7-4" value="" style="ellipse;whiteSpace=wrap;html=1;aspect=fixed;" parent="1" vertex="1">
          <mxGeometry x="195" y="315" width="10" height="10" as="geometry" />
        </mxCell>
        <mxCell id="keFbgEaDjvXF14RTKgg7-5" value="" style="ellipse;whiteSpace=wrap;html=1;aspect=fixed;" parent="1" vertex="1">
          <mxGeometry x="315" y="315" width="10" height="10" as="geometry" />
        </mxCell>
        <mxCell id="keFbgEaDjvXF14RTKgg7-6" value="" style="ellipse;whiteSpace=wrap;html=1;aspect=fixed;" parent="1" vertex="1">
          <mxGeometry x="195" y="195" width="10" height="10" as="geometry" />
        </mxCell>
        <mxCell id="keFbgEaDjvXF14RTKgg7-7" value="" style="ellipse;whiteSpace=wrap;html=1;aspect=fixed;" parent="1" vertex="1">
          <mxGeometry x="315" y="195" width="10" height="10" as="geometry" />
        </mxCell>
        <mxCell id="keFbgEaDjvXF14RTKgg7-8" value="`(x_0,y_0)`" style="text;html=1;align=center;verticalAlign=middle;whiteSpace=wrap;rounded=0;fontSize=10;" parent="1" vertex="1">
          <mxGeometry x="150" y="330" width="45" height="20" as="geometry" />
        </mxCell>
        <mxCell id="keFbgEaDjvXF14RTKgg7-9" value="`(x_0,y_0+\Delta y)`" style="text;html=1;align=center;verticalAlign=middle;whiteSpace=wrap;rounded=0;fontSize=10;" parent="1" vertex="1">
          <mxGeometry x="110" y="180" width="80" height="20" as="geometry" />
        </mxCell>
        <mxCell id="keFbgEaDjvXF14RTKgg7-10" value="`(x_0+\Delta x,y_0)`" style="text;html=1;align=center;verticalAlign=middle;whiteSpace=wrap;rounded=0;fontSize=10;" parent="1" vertex="1">
          <mxGeometry x="320" y="330" width="80" height="20" as="geometry" />
        </mxCell>
        <mxCell id="keFbgEaDjvXF14RTKgg7-11" value="`x`" style="text;html=1;align=center;verticalAlign=middle;whiteSpace=wrap;rounded=0;" parent="1" vertex="1">
          <mxGeometry x="360" y="310" width="20" height="20" as="geometry" />
        </mxCell>
        <mxCell id="keFbgEaDjvXF14RTKgg7-12" value="`y`" style="text;html=1;align=center;verticalAlign=middle;whiteSpace=wrap;rounded=0;" parent="1" vertex="1">
          <mxGeometry x="190" y="140" width="20" height="20" as="geometry" />
        </mxCell>
        <mxCell id="keFbgEaDjvXF14RTKgg7-23" value="" style="endArrow=classic;html=1;rounded=0;" parent="1" edge="1">
          <mxGeometry width="50" height="50" relative="1" as="geometry">
            <mxPoint x="490" y="320" as="sourcePoint" />
            <mxPoint x="690" y="320" as="targetPoint" />
          </mxGeometry>
        </mxCell>
        <mxCell id="keFbgEaDjvXF14RTKgg7-24" value="" style="endArrow=classic;html=1;rounded=0;" parent="1" edge="1">
          <mxGeometry width="50" height="50" relative="1" as="geometry">
            <mxPoint x="530" y="360" as="sourcePoint" />
            <mxPoint x="530" y="160" as="targetPoint" />
          </mxGeometry>
        </mxCell>
        <mxCell id="keFbgEaDjvXF14RTKgg7-25" value="" style="whiteSpace=wrap;html=1;aspect=fixed;fillColor=#d5e8d4;strokeColor=#82b366;opacity=50;" parent="1" vertex="1">
          <mxGeometry x="530" y="200" width="120" height="120" as="geometry" />
        </mxCell>
        <mxCell id="keFbgEaDjvXF14RTKgg7-26" value="" style="ellipse;whiteSpace=wrap;html=1;aspect=fixed;strokeColor=#B85450;fillColor=#B85450;" parent="1" vertex="1">
          <mxGeometry x="525" y="315" width="10" height="10" as="geometry" />
        </mxCell>
        <mxCell id="keFbgEaDjvXF14RTKgg7-27" value="" style="ellipse;whiteSpace=wrap;html=1;aspect=fixed;" parent="1" vertex="1">
          <mxGeometry x="645" y="315" width="10" height="10" as="geometry" />
        </mxCell>
        <mxCell id="keFbgEaDjvXF14RTKgg7-28" value="" style="ellipse;whiteSpace=wrap;html=1;aspect=fixed;strokeColor=#B85450;fillColor=#B85450;" parent="1" vertex="1">
          <mxGeometry x="525" y="195" width="10" height="10" as="geometry" />
        </mxCell>
        <mxCell id="keFbgEaDjvXF14RTKgg7-29" value="" style="ellipse;whiteSpace=wrap;html=1;aspect=fixed;" parent="1" vertex="1">
          <mxGeometry x="645" y="195" width="10" height="10" as="geometry" />
        </mxCell>
        <mxCell id="keFbgEaDjvXF14RTKgg7-30" value="`(x_0,y_0)`" style="text;html=1;align=center;verticalAlign=middle;whiteSpace=wrap;rounded=0;fontSize=10;" parent="1" vertex="1">
          <mxGeometry x="480" y="330" width="45" height="20" as="geometry" />
        </mxCell>
        <mxCell id="keFbgEaDjvXF14RTKgg7-31" value="`(x_0,y_0+\Delta y)`" style="text;html=1;align=center;verticalAlign=middle;whiteSpace=wrap;rounded=0;fontSize=10;" parent="1" vertex="1">
          <mxGeometry x="440" y="180" width="80" height="20" as="geometry" />
        </mxCell>
        <mxCell id="keFbgEaDjvXF14RTKgg7-32" value="`(x_0+\Delta x,y_0)`" style="text;html=1;align=center;verticalAlign=middle;whiteSpace=wrap;rounded=0;fontSize=10;" parent="1" vertex="1">
          <mxGeometry x="650" y="330" width="80" height="20" as="geometry" />
        </mxCell>
        <mxCell id="keFbgEaDjvXF14RTKgg7-33" value="`x`" style="text;html=1;align=center;verticalAlign=middle;whiteSpace=wrap;rounded=0;" parent="1" vertex="1">
          <mxGeometry x="690" y="310" width="20" height="20" as="geometry" />
        </mxCell>
        <mxCell id="keFbgEaDjvXF14RTKgg7-34" value="`y`" style="text;html=1;align=center;verticalAlign=middle;whiteSpace=wrap;rounded=0;" parent="1" vertex="1">
          <mxGeometry x="520" y="140" width="20" height="20" as="geometry" />
        </mxCell>
        <mxCell id="keFbgEaDjvXF14RTKgg7-35" value="&lt;font style=&quot;font-size: 10px;&quot; color=&quot;#3333ff&quot;&gt;`\vec{F}(x_0,y_0)`&lt;/font&gt;" style="text;html=1;align=center;verticalAlign=middle;whiteSpace=wrap;rounded=0;fontSize=10;" parent="1" vertex="1">
          <mxGeometry x="550" y="230" width="80" height="20" as="geometry" />
        </mxCell>
        <mxCell id="keFbgEaDjvXF14RTKgg7-36" value="" style="endArrow=classic;html=1;rounded=0;entryX=0.667;entryY=0.5;entryDx=0;entryDy=0;entryPerimeter=0;fillColor=#dae8fc;strokeColor=#3333FF;" parent="1" target="keFbgEaDjvXF14RTKgg7-25" edge="1">
          <mxGeometry width="50" height="50" relative="1" as="geometry">
            <mxPoint x="530.004615384593" y="319.9969230769137" as="sourcePoint" />
            <mxPoint x="570" y="260" as="targetPoint" />
          </mxGeometry>
        </mxCell>
        <mxCell id="keFbgEaDjvXF14RTKgg7-37" value="" style="endArrow=classic;html=1;rounded=0;entryX=0.664;entryY=1;entryDx=0;entryDy=0;entryPerimeter=0;fillColor=#f8cecc;strokeColor=#b85450;exitX=0;exitY=1;exitDx=0;exitDy=0;" parent="1" source="keFbgEaDjvXF14RTKgg7-25" target="keFbgEaDjvXF14RTKgg7-25" edge="1">
          <mxGeometry width="50" height="50" relative="1" as="geometry">
            <mxPoint x="540.004615384593" y="329.9969230769137" as="sourcePoint" />
            <mxPoint x="620" y="270" as="targetPoint" />
          </mxGeometry>
        </mxCell>
        <mxCell id="keFbgEaDjvXF14RTKgg7-38" value="" style="endArrow=none;html=1;rounded=0;dashed=1;fillColor=#f5f5f5;strokeColor=#666666;" parent="1" edge="1">
          <mxGeometry width="50" height="50" relative="1" as="geometry">
            <mxPoint x="610" y="320" as="sourcePoint" />
            <mxPoint x="610" y="260" as="targetPoint" />
          </mxGeometry>
        </mxCell>
        <mxCell id="keFbgEaDjvXF14RTKgg7-39" value="&lt;font style=&quot;font-size: 10px;&quot;&gt;`&amp;lt;\vec{F}(x_0,y_0),\vec{i}&amp;gt;\vec{i}`&lt;/font&gt;" style="text;html=1;align=center;verticalAlign=middle;whiteSpace=wrap;rounded=0;fontColor=#B85450;fontSize=10;" parent="1" vertex="1">
          <mxGeometry x="550" y="320" width="80" height="20" as="geometry" />
        </mxCell>
        <mxCell id="keFbgEaDjvXF14RTKgg7-40" value="" style="group" parent="1" vertex="1" connectable="0">
          <mxGeometry x="610" y="310" width="10" height="10" as="geometry" />
        </mxCell>
        <mxCell id="keFbgEaDjvXF14RTKgg7-41" value="" style="endArrow=none;html=1;rounded=0;dashed=1;fillColor=#f5f5f5;strokeColor=#666666;" parent="keFbgEaDjvXF14RTKgg7-40" edge="1">
          <mxGeometry width="50" height="50" relative="1" as="geometry">
            <mxPoint x="10" y="10" as="sourcePoint" />
            <mxPoint x="10" as="targetPoint" />
          </mxGeometry>
        </mxCell>
        <mxCell id="keFbgEaDjvXF14RTKgg7-42" value="" style="endArrow=none;html=1;rounded=0;dashed=1;fillColor=#f5f5f5;strokeColor=#666666;" parent="keFbgEaDjvXF14RTKgg7-40" edge="1">
          <mxGeometry width="50" height="50" relative="1" as="geometry">
            <mxPoint as="sourcePoint" />
            <mxPoint x="10" as="targetPoint" />
          </mxGeometry>
        </mxCell>
        <mxCell id="keFbgEaDjvXF14RTKgg7-43" value="&lt;font style=&quot;font-size: 10px;&quot;&gt;`=F_1(x_0,y_0)\vec{i}`&lt;/font&gt;" style="text;html=1;align=center;verticalAlign=middle;whiteSpace=wrap;rounded=0;fontColor=#B85450;fontSize=10;" parent="1" vertex="1">
          <mxGeometry x="550" y="340" width="80" height="20" as="geometry" />
        </mxCell>
        <mxCell id="keFbgEaDjvXF14RTKgg7-44" value="`(x_0+\Delta y,y_0+\Delta y)`" style="text;html=1;align=center;verticalAlign=middle;whiteSpace=wrap;rounded=0;fontSize=10;" parent="1" vertex="1">
          <mxGeometry x="300" y="175" width="80" height="20" as="geometry" />
        </mxCell>
        <mxCell id="keFbgEaDjvXF14RTKgg7-61" value="" style="endArrow=classic;html=1;rounded=0;" parent="1" edge="1">
          <mxGeometry width="50" height="50" relative="1" as="geometry">
            <mxPoint x="160" y="640" as="sourcePoint" />
            <mxPoint x="360" y="640" as="targetPoint" />
          </mxGeometry>
        </mxCell>
        <mxCell id="keFbgEaDjvXF14RTKgg7-62" value="" style="endArrow=classic;html=1;rounded=0;" parent="1" edge="1">
          <mxGeometry width="50" height="50" relative="1" as="geometry">
            <mxPoint x="200" y="680" as="sourcePoint" />
            <mxPoint x="200" y="480" as="targetPoint" />
          </mxGeometry>
        </mxCell>
        <mxCell id="keFbgEaDjvXF14RTKgg7-63" value="&lt;font&gt;`\vec{F}`&lt;/font&gt;" style="whiteSpace=wrap;html=1;aspect=fixed;fillColor=#d5e8d4;strokeColor=#82b366;opacity=50;fontColor=#3333FF;" parent="1" vertex="1">
          <mxGeometry x="200" y="520" width="120" height="120" as="geometry" />
        </mxCell>
        <mxCell id="keFbgEaDjvXF14RTKgg7-64" value="" style="ellipse;whiteSpace=wrap;html=1;aspect=fixed;" parent="1" vertex="1">
          <mxGeometry x="195" y="635" width="10" height="10" as="geometry" />
        </mxCell>
        <mxCell id="keFbgEaDjvXF14RTKgg7-65" value="" style="ellipse;whiteSpace=wrap;html=1;aspect=fixed;" parent="1" vertex="1">
          <mxGeometry x="315" y="635" width="10" height="10" as="geometry" />
        </mxCell>
        <mxCell id="keFbgEaDjvXF14RTKgg7-66" value="" style="ellipse;whiteSpace=wrap;html=1;aspect=fixed;" parent="1" vertex="1">
          <mxGeometry x="195" y="515" width="10" height="10" as="geometry" />
        </mxCell>
        <mxCell id="keFbgEaDjvXF14RTKgg7-67" value="" style="ellipse;whiteSpace=wrap;html=1;aspect=fixed;" parent="1" vertex="1">
          <mxGeometry x="315" y="515" width="10" height="10" as="geometry" />
        </mxCell>
        <mxCell id="keFbgEaDjvXF14RTKgg7-68" value="`(x_0,y_0)`" style="text;html=1;align=center;verticalAlign=middle;whiteSpace=wrap;rounded=0;fontSize=10;" parent="1" vertex="1">
          <mxGeometry x="150" y="650" width="45" height="20" as="geometry" />
        </mxCell>
        <mxCell id="keFbgEaDjvXF14RTKgg7-69" value="`(x_0,y_0+\Delta y)`" style="text;html=1;align=center;verticalAlign=middle;whiteSpace=wrap;rounded=0;fontSize=10;" parent="1" vertex="1">
          <mxGeometry x="110" y="500" width="80" height="20" as="geometry" />
        </mxCell>
        <mxCell id="keFbgEaDjvXF14RTKgg7-70" value="`(x_0+\Delta x,y_0)`" style="text;html=1;align=center;verticalAlign=middle;whiteSpace=wrap;rounded=0;fontSize=10;" parent="1" vertex="1">
          <mxGeometry x="320" y="650" width="80" height="20" as="geometry" />
        </mxCell>
        <mxCell id="keFbgEaDjvXF14RTKgg7-71" value="`x`" style="text;html=1;align=center;verticalAlign=middle;whiteSpace=wrap;rounded=0;" parent="1" vertex="1">
          <mxGeometry x="360" y="630" width="20" height="20" as="geometry" />
        </mxCell>
        <mxCell id="keFbgEaDjvXF14RTKgg7-72" value="`y`" style="text;html=1;align=center;verticalAlign=middle;whiteSpace=wrap;rounded=0;" parent="1" vertex="1">
          <mxGeometry x="190" y="460" width="20" height="20" as="geometry" />
        </mxCell>
        <mxCell id="keFbgEaDjvXF14RTKgg7-73" value="`(x_0+\Delta y,y_0+\Delta y)`" style="text;html=1;align=center;verticalAlign=middle;whiteSpace=wrap;rounded=0;fontSize=10;" parent="1" vertex="1">
          <mxGeometry x="300" y="495" width="80" height="20" as="geometry" />
        </mxCell>
        <mxCell id="keFbgEaDjvXF14RTKgg7-74" value="" style="endArrow=classic;html=1;rounded=0;fillColor=#dae8fc;strokeColor=#3333FF;" parent="1" edge="1">
          <mxGeometry width="50" height="50" relative="1" as="geometry">
            <mxPoint x="200.00461538459294" y="639.9969230769136" as="sourcePoint" />
            <mxPoint x="250" y="620" as="targetPoint" />
          </mxGeometry>
        </mxCell>
        <mxCell id="keFbgEaDjvXF14RTKgg7-75" value="" style="endArrow=classic;html=1;rounded=0;fillColor=#dae8fc;strokeColor=#3333FF;" parent="1" edge="1">
          <mxGeometry width="50" height="50" relative="1" as="geometry">
            <mxPoint x="200.00461538459294" y="599.9969230769136" as="sourcePoint" />
            <mxPoint x="249" y="585" as="targetPoint" />
          </mxGeometry>
        </mxCell>
        <mxCell id="keFbgEaDjvXF14RTKgg7-76" value="" style="endArrow=classic;html=1;rounded=0;fillColor=#dae8fc;strokeColor=#3333FF;" parent="1" edge="1">
          <mxGeometry width="50" height="50" relative="1" as="geometry">
            <mxPoint x="201.00461538459294" y="559.9969230769136" as="sourcePoint" />
            <mxPoint x="257" y="555" as="targetPoint" />
          </mxGeometry>
        </mxCell>
        <mxCell id="keFbgEaDjvXF14RTKgg7-77" value="" style="endArrow=classic;html=1;rounded=0;fillColor=#dae8fc;strokeColor=#3333FF;" parent="1" edge="1">
          <mxGeometry width="50" height="50" relative="1" as="geometry">
            <mxPoint x="200.00461538459294" y="519.9969230769136" as="sourcePoint" />
            <mxPoint x="258" y="542" as="targetPoint" />
          </mxGeometry>
        </mxCell>
        <mxCell id="keFbgEaDjvXF14RTKgg7-78" value="" style="endArrow=classic;html=1;rounded=0;fillColor=#dae8fc;strokeColor=#3333FF;" parent="1" edge="1">
          <mxGeometry width="50" height="50" relative="1" as="geometry">
            <mxPoint x="260.00461538459297" y="639.9969230769136" as="sourcePoint" />
            <mxPoint x="293" y="574" as="targetPoint" />
          </mxGeometry>
        </mxCell>
        <mxCell id="keFbgEaDjvXF14RTKgg7-79" value="" style="endArrow=classic;html=1;rounded=0;fillColor=#dae8fc;strokeColor=#3333FF;" parent="1" edge="1">
          <mxGeometry width="50" height="50" relative="1" as="geometry">
            <mxPoint x="260.00461538459297" y="599.9969230769136" as="sourcePoint" />
            <mxPoint x="291" y="551" as="targetPoint" />
          </mxGeometry>
        </mxCell>
        <mxCell id="keFbgEaDjvXF14RTKgg7-80" value="" style="endArrow=classic;html=1;rounded=0;fillColor=#dae8fc;strokeColor=#3333FF;" parent="1" edge="1">
          <mxGeometry width="50" height="50" relative="1" as="geometry">
            <mxPoint x="260.00461538459297" y="519.9969230769136" as="sourcePoint" />
            <mxPoint x="293" y="525" as="targetPoint" />
          </mxGeometry>
        </mxCell>
        <mxCell id="keFbgEaDjvXF14RTKgg7-81" value="" style="endArrow=classic;html=1;rounded=0;fillColor=#dae8fc;strokeColor=#3333FF;" parent="1" edge="1">
          <mxGeometry width="50" height="50" relative="1" as="geometry">
            <mxPoint x="260.00461538459297" y="559.9969230769136" as="sourcePoint" />
            <mxPoint x="288" y="540" as="targetPoint" />
          </mxGeometry>
        </mxCell>
        <mxCell id="keFbgEaDjvXF14RTKgg7-82" value="" style="endArrow=classic;html=1;rounded=0;fillColor=#dae8fc;strokeColor=#3333FF;" parent="1" edge="1">
          <mxGeometry width="50" height="50" relative="1" as="geometry">
            <mxPoint x="320.00461538459297" y="639.9969230769136" as="sourcePoint" />
            <mxPoint x="302" y="602" as="targetPoint" />
          </mxGeometry>
        </mxCell>
        <mxCell id="keFbgEaDjvXF14RTKgg7-83" value="" style="endArrow=classic;html=1;rounded=0;fillColor=#dae8fc;strokeColor=#3333FF;" parent="1" edge="1">
          <mxGeometry width="50" height="50" relative="1" as="geometry">
            <mxPoint x="320.00461538459297" y="600.9969230769136" as="sourcePoint" />
            <mxPoint x="305" y="572" as="targetPoint" />
          </mxGeometry>
        </mxCell>
        <mxCell id="keFbgEaDjvXF14RTKgg7-84" value="" style="endArrow=classic;html=1;rounded=0;fillColor=#dae8fc;strokeColor=#3333FF;" parent="1" edge="1">
          <mxGeometry width="50" height="50" relative="1" as="geometry">
            <mxPoint x="320.00461538459297" y="559.9969230769136" as="sourcePoint" />
            <mxPoint x="315" y="538" as="targetPoint" />
          </mxGeometry>
        </mxCell>
        <mxCell id="keFbgEaDjvXF14RTKgg7-85" value="" style="endArrow=classic;html=1;rounded=0;fillColor=#dae8fc;strokeColor=#3333FF;" parent="1" edge="1">
          <mxGeometry width="50" height="50" relative="1" as="geometry">
            <mxPoint x="320.00461538459297" y="519.9969230769136" as="sourcePoint" />
            <mxPoint x="310" y="528" as="targetPoint" />
          </mxGeometry>
        </mxCell>
        <mxCell id="keFbgEaDjvXF14RTKgg7-86" value="" style="endArrow=none;html=1;rounded=0;entryX=0.5;entryY=1;entryDx=0;entryDy=0;exitX=0.5;exitY=0;exitDx=0;exitDy=0;strokeColor=#B85450;strokeWidth=1;" parent="1" source="keFbgEaDjvXF14RTKgg7-26" target="keFbgEaDjvXF14RTKgg7-28" edge="1">
          <mxGeometry width="50" height="50" relative="1" as="geometry">
            <mxPoint x="520" y="280" as="sourcePoint" />
            <mxPoint x="570" y="230" as="targetPoint" />
          </mxGeometry>
        </mxCell>
        <mxCell id="keFbgEaDjvXF14RTKgg7-87" value="&lt;font color=&quot;#b85450&quot;&gt;&lt;b&gt;左邊界&lt;/b&gt;&lt;/font&gt;" style="text;html=1;align=center;verticalAlign=middle;whiteSpace=wrap;rounded=0;" parent="1" vertex="1">
          <mxGeometry x="487" y="245" width="43" height="30" as="geometry" />
        </mxCell>
        <mxCell id="keFbgEaDjvXF14RTKgg7-111" value="" style="endArrow=classic;html=1;rounded=0;" parent="1" edge="1">
          <mxGeometry width="50" height="50" relative="1" as="geometry">
            <mxPoint x="490" y="640" as="sourcePoint" />
            <mxPoint x="690" y="640" as="targetPoint" />
          </mxGeometry>
        </mxCell>
        <mxCell id="keFbgEaDjvXF14RTKgg7-112" value="" style="endArrow=classic;html=1;rounded=0;" parent="1" edge="1">
          <mxGeometry width="50" height="50" relative="1" as="geometry">
            <mxPoint x="530" y="680" as="sourcePoint" />
            <mxPoint x="530" y="480" as="targetPoint" />
          </mxGeometry>
        </mxCell>
        <mxCell id="keFbgEaDjvXF14RTKgg7-113" value="" style="whiteSpace=wrap;html=1;aspect=fixed;fillColor=#d5e8d4;strokeColor=#82b366;opacity=50;" parent="1" vertex="1">
          <mxGeometry x="530" y="520" width="120" height="120" as="geometry" />
        </mxCell>
        <mxCell id="keFbgEaDjvXF14RTKgg7-114" value="" style="ellipse;whiteSpace=wrap;html=1;aspect=fixed;strokeColor=default;fillColor=default;align=center;verticalAlign=middle;fontFamily=Helvetica;fontSize=12;fontColor=default;" parent="1" vertex="1">
          <mxGeometry x="525" y="635" width="10" height="10" as="geometry" />
        </mxCell>
        <mxCell id="keFbgEaDjvXF14RTKgg7-115" value="" style="ellipse;whiteSpace=wrap;html=1;aspect=fixed;strokeColor=#B85450;align=center;verticalAlign=middle;fontFamily=Helvetica;fontSize=12;fontColor=default;fillColor=#B85450;" parent="1" vertex="1">
          <mxGeometry x="645" y="635" width="10" height="10" as="geometry" />
        </mxCell>
        <mxCell id="keFbgEaDjvXF14RTKgg7-117" value="" style="ellipse;whiteSpace=wrap;html=1;aspect=fixed;strokeColor=#B85450;align=center;verticalAlign=middle;fontFamily=Helvetica;fontSize=12;fontColor=default;fillColor=#B85450;" parent="1" vertex="1">
          <mxGeometry x="645" y="515" width="10" height="10" as="geometry" />
        </mxCell>
        <mxCell id="keFbgEaDjvXF14RTKgg7-118" value="`(x_0,y_0)`" style="text;html=1;align=center;verticalAlign=middle;whiteSpace=wrap;rounded=0;fontSize=10;" parent="1" vertex="1">
          <mxGeometry x="480" y="650" width="45" height="20" as="geometry" />
        </mxCell>
        <mxCell id="keFbgEaDjvXF14RTKgg7-119" value="`(x_0,y_0+\Delta y)`" style="text;html=1;align=center;verticalAlign=middle;whiteSpace=wrap;rounded=0;fontSize=10;" parent="1" vertex="1">
          <mxGeometry x="440" y="500" width="80" height="20" as="geometry" />
        </mxCell>
        <mxCell id="keFbgEaDjvXF14RTKgg7-120" value="`(x_0+\Delta x,y_0)`" style="text;html=1;align=center;verticalAlign=middle;whiteSpace=wrap;rounded=0;fontSize=10;" parent="1" vertex="1">
          <mxGeometry x="650" y="650" width="80" height="20" as="geometry" />
        </mxCell>
        <mxCell id="keFbgEaDjvXF14RTKgg7-121" value="`x`" style="text;html=1;align=center;verticalAlign=middle;whiteSpace=wrap;rounded=0;" parent="1" vertex="1">
          <mxGeometry x="690" y="630" width="20" height="20" as="geometry" />
        </mxCell>
        <mxCell id="keFbgEaDjvXF14RTKgg7-122" value="`y`" style="text;html=1;align=center;verticalAlign=middle;whiteSpace=wrap;rounded=0;" parent="1" vertex="1">
          <mxGeometry x="520" y="460" width="20" height="20" as="geometry" />
        </mxCell>
        <mxCell id="keFbgEaDjvXF14RTKgg7-123" value="&lt;font style=&quot;font-size: 10px;&quot; color=&quot;#3333ff&quot;&gt;`\vec{F}(x_0+\Delta x,y_0)`&lt;/font&gt;" style="text;html=1;align=center;verticalAlign=middle;whiteSpace=wrap;rounded=0;fontSize=10;" parent="1" vertex="1">
          <mxGeometry x="550" y="550" width="80" height="20" as="geometry" />
        </mxCell>
        <mxCell id="keFbgEaDjvXF14RTKgg7-124" value="" style="endArrow=classic;html=1;rounded=0;entryX=0.667;entryY=0.5;entryDx=0;entryDy=0;entryPerimeter=0;fillColor=#dae8fc;strokeColor=#3333FF;exitX=1;exitY=1;exitDx=0;exitDy=0;" parent="1" source="keFbgEaDjvXF14RTKgg7-113" target="keFbgEaDjvXF14RTKgg7-113" edge="1">
          <mxGeometry width="50" height="50" relative="1" as="geometry">
            <mxPoint x="530.004615384593" y="639.9969230769136" as="sourcePoint" />
            <mxPoint x="570" y="580" as="targetPoint" />
          </mxGeometry>
        </mxCell>
        <mxCell id="keFbgEaDjvXF14RTKgg7-125" value="" style="endArrow=classic;html=1;rounded=0;entryX=0.664;entryY=1;entryDx=0;entryDy=0;entryPerimeter=0;fillColor=#f8cecc;strokeColor=#b85450;" parent="1" target="keFbgEaDjvXF14RTKgg7-113" edge="1">
          <mxGeometry width="50" height="50" relative="1" as="geometry">
            <mxPoint x="650" y="640" as="sourcePoint" />
            <mxPoint x="620" y="590" as="targetPoint" />
          </mxGeometry>
        </mxCell>
        <mxCell id="keFbgEaDjvXF14RTKgg7-126" value="" style="endArrow=none;html=1;rounded=0;dashed=1;fillColor=#f5f5f5;strokeColor=#666666;" parent="1" edge="1">
          <mxGeometry width="50" height="50" relative="1" as="geometry">
            <mxPoint x="610" y="640" as="sourcePoint" />
            <mxPoint x="610" y="580" as="targetPoint" />
          </mxGeometry>
        </mxCell>
        <mxCell id="keFbgEaDjvXF14RTKgg7-127" value="&lt;font style=&quot;font-size: 10px;&quot;&gt;`&amp;lt;\vec{F}(x_0+\Delta x,y_0),\vec{i}&amp;gt;\vec{i}`&lt;/font&gt;" style="text;html=1;align=center;verticalAlign=middle;whiteSpace=wrap;rounded=0;fontColor=#B85450;fontSize=10;" parent="1" vertex="1">
          <mxGeometry x="520" y="650" width="140" height="20" as="geometry" />
        </mxCell>
        <mxCell id="keFbgEaDjvXF14RTKgg7-128" value="" style="group" parent="1" vertex="1" connectable="0">
          <mxGeometry x="610" y="630" width="10" height="10" as="geometry" />
        </mxCell>
        <mxCell id="keFbgEaDjvXF14RTKgg7-129" value="" style="endArrow=none;html=1;rounded=0;dashed=1;fillColor=#f5f5f5;strokeColor=#666666;" parent="keFbgEaDjvXF14RTKgg7-128" edge="1">
          <mxGeometry width="50" height="50" relative="1" as="geometry">
            <mxPoint x="10" y="10" as="sourcePoint" />
            <mxPoint x="10" as="targetPoint" />
          </mxGeometry>
        </mxCell>
        <mxCell id="keFbgEaDjvXF14RTKgg7-130" value="" style="endArrow=none;html=1;rounded=0;dashed=1;fillColor=#f5f5f5;strokeColor=#666666;" parent="keFbgEaDjvXF14RTKgg7-128" edge="1">
          <mxGeometry width="50" height="50" relative="1" as="geometry">
            <mxPoint as="sourcePoint" />
            <mxPoint x="10" as="targetPoint" />
          </mxGeometry>
        </mxCell>
        <mxCell id="keFbgEaDjvXF14RTKgg7-131" value="&lt;font style=&quot;font-size: 10px;&quot;&gt;`=F_1(x_0+\Delta x,y_0)\vec{i}`&lt;/font&gt;" style="text;html=1;align=center;verticalAlign=middle;whiteSpace=wrap;rounded=0;fontColor=#B85450;fontSize=10;" parent="1" vertex="1">
          <mxGeometry x="530" y="670" width="120" height="20" as="geometry" />
        </mxCell>
        <mxCell id="keFbgEaDjvXF14RTKgg7-132" value="" style="endArrow=none;html=1;rounded=0;entryX=0.5;entryY=1;entryDx=0;entryDy=0;exitX=0.5;exitY=0;exitDx=0;exitDy=0;strokeColor=#B85450;strokeWidth=1;" parent="1" edge="1">
          <mxGeometry width="50" height="50" relative="1" as="geometry">
            <mxPoint x="650" y="634.9999999999999" as="sourcePoint" />
            <mxPoint x="650" y="525" as="targetPoint" />
          </mxGeometry>
        </mxCell>
        <mxCell id="keFbgEaDjvXF14RTKgg7-133" value="&lt;font color=&quot;#b85450&quot;&gt;&lt;b&gt;右邊界&lt;/b&gt;&lt;/font&gt;" style="text;html=1;align=center;verticalAlign=middle;whiteSpace=wrap;rounded=0;" parent="1" vertex="1">
          <mxGeometry x="650" y="565" width="43" height="30" as="geometry" />
        </mxCell>
        <mxCell id="3Vint5cdIcsb6F5nu3PV-13" value="" style="endArrow=classic;html=1;rounded=0;fillColor=#dae8fc;strokeColor=#FF3333;exitX=1;exitY=0.5;exitDx=0;exitDy=0;" edge="1" parent="1" source="keFbgEaDjvXF14RTKgg7-116">
          <mxGeometry width="50" height="50" relative="1" as="geometry">
            <mxPoint x="391" y="1008.36" as="sourcePoint" />
            <mxPoint x="431" y="1008.36" as="targetPoint" />
          </mxGeometry>
        </mxCell>
        <mxCell id="keFbgEaDjvXF14RTKgg7-116" value="" style="ellipse;whiteSpace=wrap;html=1;aspect=fixed;strokeColor=default;fillColor=default;align=center;verticalAlign=middle;fontFamily=Helvetica;fontSize=12;fontColor=default;" parent="1" vertex="1">
          <mxGeometry x="387" y="1005.5" width="6" height="6" as="geometry" />
        </mxCell>
        <mxCell id="3Vint5cdIcsb6F5nu3PV-16" value="`(\vec{x}_0)`" style="text;html=1;align=center;verticalAlign=middle;whiteSpace=wrap;rounded=0;fontSize=10;" vertex="1" parent="1">
          <mxGeometry x="365" y="983.5" width="45" height="20" as="geometry" />
        </mxCell>
        <mxCell id="3Vint5cdIcsb6F5nu3PV-19" value="&lt;font color=&quot;#ff3333&quot; style=&quot;font-size: 10px;&quot;&gt;`\vec{F}(\vec{x}_0)`&lt;/font&gt;" style="text;html=1;align=center;verticalAlign=middle;whiteSpace=wrap;rounded=0;fontSize=10;" vertex="1" parent="1">
          <mxGeometry x="431" y="998.5" width="56" height="20" as="geometry" />
        </mxCell>
        <mxCell id="3Vint5cdIcsb6F5nu3PV-20" value="" style="group" vertex="1" connectable="0" parent="1">
          <mxGeometry x="325" y="750" width="90" height="118" as="geometry" />
        </mxCell>
        <mxCell id="3Vint5cdIcsb6F5nu3PV-21" value="" style="html=1;whiteSpace=wrap;shape=isoCube2;backgroundOutline=1;isoAngle=15;fillColor=none;" vertex="1" parent="3Vint5cdIcsb6F5nu3PV-20">
          <mxGeometry width="90" height="100" as="geometry" />
        </mxCell>
        <mxCell id="3Vint5cdIcsb6F5nu3PV-22" value="" style="verticalLabelPosition=bottom;verticalAlign=top;html=1;shape=mxgraph.basic.polygon;polyCoords=[[0,0.25],[1,0.04],[1,0.04],[1,0.58],[1,0.58],[1,0.61],[0,0.82],[0,0.25]];polyline=1;strokeColor=#3333FF;fillColor=#dae8fc;" vertex="1" parent="3Vint5cdIcsb6F5nu3PV-20">
          <mxGeometry x="45" y="18" width="45" height="100" as="geometry" />
        </mxCell>
        <mxCell id="3Vint5cdIcsb6F5nu3PV-23" value="" style="group" vertex="1" connectable="0" parent="1">
          <mxGeometry x="373" y="770" width="90" height="103" as="geometry" />
        </mxCell>
        <mxCell id="3Vint5cdIcsb6F5nu3PV-24" value="" style="verticalLabelPosition=bottom;verticalAlign=top;html=1;shape=mxgraph.basic.polygon;polyCoords=[[0,0.25],[1,0.04],[1,0.04],[1,0.58],[1,0.58],[1,0.61],[0,0.82],[0,0.25]];polyline=1;strokeColor=#3333FF;fillColor=#dae8fc;opacity=50;" vertex="1" parent="3Vint5cdIcsb6F5nu3PV-23">
          <mxGeometry width="45" height="100" as="geometry" />
        </mxCell>
        <mxCell id="3Vint5cdIcsb6F5nu3PV-25" value="" style="html=1;whiteSpace=wrap;shape=isoCube2;backgroundOutline=1;isoAngle=15;fillColor=none;" vertex="1" parent="3Vint5cdIcsb6F5nu3PV-23">
          <mxGeometry y="3" width="90" height="100" as="geometry" />
        </mxCell>
        <mxCell id="3Vint5cdIcsb6F5nu3PV-26" value="" style="endArrow=none;dashed=1;html=1;rounded=0;entryX=0;entryY=0;entryDx=90;entryDy=78.39291168278956;entryPerimeter=0;exitX=0.996;exitY=0.618;exitDx=0;exitDy=0;exitPerimeter=0;" edge="1" parent="3Vint5cdIcsb6F5nu3PV-23" source="3Vint5cdIcsb6F5nu3PV-24" target="3Vint5cdIcsb6F5nu3PV-25">
          <mxGeometry width="50" height="50" relative="1" as="geometry">
            <mxPoint x="-70" y="14" as="sourcePoint" />
            <mxPoint x="-20" y="-36" as="targetPoint" />
          </mxGeometry>
        </mxCell>
        <mxCell id="3Vint5cdIcsb6F5nu3PV-30" value="" style="ellipse;whiteSpace=wrap;html=1;aspect=fixed;strokeColor=default;fillColor=default;align=center;verticalAlign=middle;fontFamily=Helvetica;fontSize=12;fontColor=default;" vertex="1" parent="1">
          <mxGeometry x="392" y="812" width="6" height="6" as="geometry" />
        </mxCell>
        <mxCell id="3Vint5cdIcsb6F5nu3PV-34" value="`(\vec{x}_0)`" style="text;html=1;align=center;verticalAlign=middle;whiteSpace=wrap;rounded=0;fontSize=10;" vertex="1" parent="1">
          <mxGeometry x="377" y="819" width="45" height="20" as="geometry" />
        </mxCell>
        <mxCell id="3Vint5cdIcsb6F5nu3PV-35" value="`V_1`" style="text;html=1;align=center;verticalAlign=middle;whiteSpace=wrap;rounded=0;fontSize=10;" vertex="1" parent="1">
          <mxGeometry x="321" y="839" width="30" height="20" as="geometry" />
        </mxCell>
        <mxCell id="3Vint5cdIcsb6F5nu3PV-36" value="`V_2`" style="text;html=1;align=center;verticalAlign=middle;whiteSpace=wrap;rounded=0;fontSize=10;" vertex="1" parent="1">
          <mxGeometry x="375" y="863" width="30" height="20" as="geometry" />
        </mxCell>
        <mxCell id="3Vint5cdIcsb6F5nu3PV-37" value="`V_1`" style="text;html=1;align=center;verticalAlign=middle;whiteSpace=wrap;rounded=0;fontSize=10;" vertex="1" parent="1">
          <mxGeometry x="325" y="1035" width="30" height="20" as="geometry" />
        </mxCell>
        <mxCell id="3Vint5cdIcsb6F5nu3PV-38" value="`V_2`" style="text;html=1;align=center;verticalAlign=middle;whiteSpace=wrap;rounded=0;fontSize=10;" vertex="1" parent="1">
          <mxGeometry x="498" y="1041" width="30" height="20" as="geometry" />
        </mxCell>
        <mxCell id="3Vint5cdIcsb6F5nu3PV-9" value="" style="verticalLabelPosition=bottom;verticalAlign=top;html=1;shape=mxgraph.basic.polygon;polyCoords=[[0,0.25],[1,0.04],[1,0.04],[1,0.58],[1,0.58],[1,0.61],[0,0.82],[0,0.25]];polyline=1;strokeColor=#3333FF;fillColor=#dae8fc;opacity=50;" vertex="1" parent="1">
          <mxGeometry x="503" y="951" width="45" height="100" as="geometry" />
        </mxCell>
        <mxCell id="3Vint5cdIcsb6F5nu3PV-2" value="" style="html=1;whiteSpace=wrap;shape=isoCube2;backgroundOutline=1;isoAngle=15;fillColor=none;" vertex="1" parent="1">
          <mxGeometry x="503" y="954" width="90" height="100" as="geometry" />
        </mxCell>
        <mxCell id="3Vint5cdIcsb6F5nu3PV-10" value="" style="endArrow=none;dashed=1;html=1;rounded=0;entryX=0;entryY=0;entryDx=90;entryDy=78.39291168278956;entryPerimeter=0;exitX=0.996;exitY=0.618;exitDx=0;exitDy=0;exitPerimeter=0;" edge="1" parent="1" source="3Vint5cdIcsb6F5nu3PV-9" target="3Vint5cdIcsb6F5nu3PV-2">
          <mxGeometry width="50" height="50" relative="1" as="geometry">
            <mxPoint x="433" y="965" as="sourcePoint" />
            <mxPoint x="483" y="915" as="targetPoint" />
          </mxGeometry>
        </mxCell>
        <mxCell id="3Vint5cdIcsb6F5nu3PV-17" value="" style="ellipse;whiteSpace=wrap;html=1;aspect=fixed;strokeColor=default;fillColor=default;align=center;verticalAlign=middle;fontFamily=Helvetica;fontSize=12;fontColor=default;" vertex="1" parent="1">
          <mxGeometry x="522.5" y="998" width="6" height="6" as="geometry" />
        </mxCell>
        <mxCell id="3Vint5cdIcsb6F5nu3PV-18" value="" style="endArrow=classic;html=1;rounded=0;fillColor=#dae8fc;strokeColor=#FF3333;exitX=1;exitY=0.5;exitDx=0;exitDy=0;" edge="1" parent="1">
          <mxGeometry width="50" height="50" relative="1" as="geometry">
            <mxPoint x="528.5" y="1001.06" as="sourcePoint" />
            <mxPoint x="566.5" y="1000.92" as="targetPoint" />
          </mxGeometry>
        </mxCell>
        <mxCell id="3Vint5cdIcsb6F5nu3PV-40" value="`(\vec{x}_0)`" style="text;html=1;align=center;verticalAlign=middle;whiteSpace=wrap;rounded=0;fontSize=10;" vertex="1" parent="1">
          <mxGeometry x="503" y="1003.5" width="45" height="20" as="geometry" />
        </mxCell>
        <mxCell id="3Vint5cdIcsb6F5nu3PV-41" value="&lt;font color=&quot;#ff3333&quot; style=&quot;font-size: 10px;&quot;&gt;`\vec{F}(\vec{x}_0)`&lt;/font&gt;" style="text;html=1;align=center;verticalAlign=middle;whiteSpace=wrap;rounded=0;fontSize=10;" vertex="1" parent="1">
          <mxGeometry x="566.5" y="991" width="56" height="20" as="geometry" />
        </mxCell>
        <mxCell id="3Vint5cdIcsb6F5nu3PV-42" value="對 `V_1` 來說 `\vec{F}` 為流出&lt;br&gt;所以 `\vec{F}` 貢獻出&lt;font color=&quot;#ff3333&quot;&gt;&lt;b&gt;正的&lt;/b&gt;&lt;/font&gt;淨流出量" style="text;html=1;align=center;verticalAlign=middle;whiteSpace=wrap;rounded=0;fontSize=10;" vertex="1" parent="1">
          <mxGeometry x="297" y="1063" width="146" height="40" as="geometry" />
        </mxCell>
        <mxCell id="3Vint5cdIcsb6F5nu3PV-44" value="相鄰兩個 cubes `V_1` 和 `V_2`" style="text;html=1;align=center;verticalAlign=middle;whiteSpace=wrap;rounded=0;fontSize=10;" vertex="1" parent="1">
          <mxGeometry x="297" y="884" width="146" height="20" as="geometry" />
        </mxCell>
        <mxCell id="3Vint5cdIcsb6F5nu3PV-45" value="對 `V_2` 來說 `\vec{F}` 為流入&lt;br&gt;所以 `\vec{F}` 貢獻出&lt;b&gt;&lt;font color=&quot;#ff3333&quot;&gt;負的&lt;/font&gt;&lt;/b&gt;淨流出量" style="text;html=1;align=center;verticalAlign=middle;whiteSpace=wrap;rounded=0;fontSize=10;" vertex="1" parent="1">
          <mxGeometry x="479" y="1063" width="146" height="40" as="geometry" />
        </mxCell>
        <mxCell id="3Vint5cdIcsb6F5nu3PV-46" value="&lt;font color=&quot;#3333ff&quot;&gt;surface `S_1`&lt;/font&gt;" style="text;html=1;align=center;verticalAlign=middle;whiteSpace=wrap;rounded=0;fontSize=10;" vertex="1" parent="1">
          <mxGeometry x="405" y="941" width="54" height="20" as="geometry" />
        </mxCell>
        <mxCell id="3Vint5cdIcsb6F5nu3PV-48" value="" style="endArrow=blockThin;html=1;rounded=0;strokeColor=#3333FF;dashed=1;endFill=1;startArrow=oval;startFill=1;startSize=2;entryX=0.5;entryY=1;entryDx=0;entryDy=0;" edge="1" parent="1" target="3Vint5cdIcsb6F5nu3PV-46">
          <mxGeometry width="50" height="50" relative="1" as="geometry">
            <mxPoint x="410" y="983.5" as="sourcePoint" />
            <mxPoint x="440" y="955.5" as="targetPoint" />
          </mxGeometry>
        </mxCell>
        <mxCell id="3Vint5cdIcsb6F5nu3PV-49" value="&lt;font color=&quot;#3333ff&quot;&gt;surface `S_2`&lt;/font&gt;" style="text;html=1;align=center;verticalAlign=middle;whiteSpace=wrap;rounded=0;fontSize=10;" vertex="1" parent="1">
          <mxGeometry x="476" y="941" width="54" height="20" as="geometry" />
        </mxCell>
        <mxCell id="3Vint5cdIcsb6F5nu3PV-50" value="" style="endArrow=blockThin;html=1;rounded=0;strokeColor=#3333FF;dashed=1;endFill=1;startArrow=oval;startFill=1;startSize=2;entryX=0.5;entryY=1;entryDx=0;entryDy=0;" edge="1" parent="1" target="3Vint5cdIcsb6F5nu3PV-49">
          <mxGeometry width="50" height="50" relative="1" as="geometry">
            <mxPoint x="525" y="978" as="sourcePoint" />
            <mxPoint x="503" y="961" as="targetPoint" />
          </mxGeometry>
        </mxCell>
      </root>
    </mxGraphModel>
  </diagram>
</mxfile>
